# xmcd CD database file
#
# Track frame offsets:
#	150
#	31649
#	73223
#	93526
#	126552
#	157360
#	197084
#	232728
#	241333
#	251424
#	260653
#	290562
#
# Disc length: 4141 seconds
#
# Revision: 0
# Processed by: cddbd v1.5.2PL0 Copyright (c) Steve Scherf et al.
# Submitted via: CDex 1.70beta2
#
DISCID=b1102b0c
DTITLE=Innocent Grey - ドラマCD 殻ノ少女 第二巻「ネアニスの卵」 DISC2
DYEAR=2009
DGENRE=ドラマCD
TTITLE0=陰獣
TTITLE1=魔術師
TTITLE2=湖畔亭事件
TTITLE3=人間椅子
TTITLE4=木馬は廻る
TTITLE5=人でなしの恋
TTITLE6=接吻
TTITLE7=瑠璃の島
TTITLE8=心理試験
TTITLE9=西荻窪・コネクション？
TTITLE10=ネッチュー時代・トジ子編？
TTITLE11=気分は迷探偵？
EXTD=YEAR: 2009
EXTT0=
EXTT1=
EXTT2=
EXTT3=
EXTT4=
EXTT5=
EXTT6=
EXTT7=
EXTT8=
EXTT9=
EXTT10=
EXTT11=
PLAYORDER=
